<?xml version="1.0" encoding="utf-8"?>
<!-- Generator: Adobe Illustrator 21.0.2, SVG Export Plug-In . SVG Version: 6.00 Build 0)  -->
<svg version="1.1" xmlns="http://www.w3.org/2000/svg" xmlns:xlink="http://www.w3.org/1999/xlink" x="0px" y="0px"
	 viewBox="0 0 1026 792" style="enable-background:new 0 0 1026 792;" xml:space="preserve">
<style type="text/css">
	.st0{fill:#D8C4A7;}
	.st1{fill:#F9F1E8;}
	.st2{fill:#916224;}
</style>
<g id="bg">
	<rect class="st0" width="1025" height="790"/>
</g>
<g id="road">
	<path class="st1" d="M906.1,467.3l-1.8,2.3c2.1-2.6,3.4-6,3.4-9.6c0-8.4-6.8-15.2-15.2-15.2c-9.7-9.7-57-57.3-68.4-73.5
		c-10.9-15.4-24.5-16.3-30-16l-3-16c30-13.2,69.2-31.1,69.7-31.3l1.2-0.5l0.1-0.3c3.7-2.7,21.6-15,43.4-11.9
		c18.8,2.7,86.6,28.4,119.7,41.3v-5.4c-33.8-13.1-99.8-38.1-119-40.9c-18.9-2.7-34.9,5.1-42.7,9.9l1.8-9.6l0-0.1
		c0.6-4.6,0.6-8.4,0.1-11.6c4.3-0.9,17.3-3.1,29.8,0.3c12.3,3.3,94.6,33.4,130,46.3v-5.3c-36.4-13.3-116.2-42.5-128.7-45.8
		c-13.9-3.8-28-1.3-32.4-0.3c-3.7-9.1-13.1-12.3-24-16.1c-2.6-0.9-5.3-1.8-8-2.9c-8.7-3.3-80.8-25.6-164.2-51.3
		c-111.9-34.6-251.2-77.6-289.8-91C311.1,89.5,265.6,81,265.1,80.9l-0.1,0.5c-1.7-6.1-7.2-10.5-13.8-10.5c-2.2,0-4.3,0.5-6.2,1.4
		L18.4,0H2l238.4,76c-2.1,2.5-3.3,5.7-3.3,9.1c0,4.7,2.3,8.8,5.8,11.4c-1.9,3.9-12,24.9-20.7,42c-5,9.8-2.6,29.7,0.4,55
		c3.1,26.4,6.7,56.3,2.4,81.1c-8.1,46.8-69.5,97.3-70.1,97.8l0.8,1c-3.2-2.1-7-3.3-11.1-3.3c-6.2,0-11.8,2.9-15.5,7.4
		c-6.7-3.8-37.1-19.7-74.4-13.9c-26.4,4.1-44.8,8.8-54.6,11.7v5.2c9.3-2.8,28.1-7.8,55.4-12c35-5.4,64.4,9.6,70.9,13.2
		c-1.2,2.6-1.9,5.5-1.9,8.5c0,7.5,4.2,14.1,10.3,17.5c-7.6,12.1-32.5,48.5-62.6,82c-46.6,51.9-48.5,106.7-5.8,162.9
		c26.9,35.3,62,46.9,86.8,50.4c8,1.1,15.4,1.5,21.8,1.5c11.5,0,20.1-1.3,23.9-2c6.5,16.2,18.8,46.7,22.1,55.2
		c-31.4,15.2-65.2,28.6-74.6,32.3h13.6c25.4-10.2,78.2-32.6,106.2-51.6c26.2-17.8,69-61.5,97.4-90.3c12.5-12.7,22.3-22.7,26.1-25.8
		c6.4-5.3,25.6-16.6,44.2-27.6c17.3-10.2,33.6-19.9,38.5-24c6.6-5.5,9.1-11.9,7.5-19.2c2.9,1.2,5.7,1.8,8.5,1.8
		c13.2,0,26-12.5,44.1-30.1c11.9-11.6,46.6-28.9,80.1-45.7c39.4-19.6,80-40,92.7-54.8c12.4-14.5,19.6-34.6,23.5-48.9
		c2.6-9.6,4.1-17.8,4.9-22.8c1.3,1,2.6,1.8,4,2.4c2.7,1.2,5.7,1.8,9,1.8c4.6,0,9.8-1.2,15.6-3.5c5.1-2.1,13.8-5.8,24-10.3l2.8,14.7
		c-8.3,2-35,9.8-48.5,30.9c-3.7,5.7-7,11.9-10.5,18.4c-11.1,20.7-22.6,42-46.7,51.6c-26.3,10.5-88,35-126.8,61.3
		c-18,12.2-31.4,22.6-43.2,31.9c-12.6,9.9-23.5,18.4-36.6,26.4c-1.8,1.1-3.8,2.3-6,3.6c-31.9,19.3-98.2,59.3-115.5,86.8
		c-18.1,28.6-50,54.5-73.9,69.2c-19.7,12.2-70,42.9-87.7,53.8h9.6c21.5-13.2,63.2-38.7,80.7-49.5c19.9-12.3,45.3-32.2,64-55
		c17.6-7.9,458.6-207.6,498-224.8c22.4-9.8,28.8-7.3,30.5-5.9c0.6,0.5,0.9,1.2,1.1,1.8c-0.2,1.1-0.4,2.2-0.4,3.4
		c0,8.4,6.8,15.2,15.2,15.2c4.7,0,8.9-2.1,11.7-5.5l-1.2,1.5c0.1,0.1,13.2,10.5,35.5,27.3c17.6,13.3,65.1,31.9,86.5,39.9v-5.4
		c-22-8.3-67.1-26.2-83.5-38.6C919.3,477.7,906.2,467.4,906.1,467.3z M242,85.1c0-5.1,4.2-9.3,9.3-9.3s9.3,4.2,9.3,9.3
		s-4.2,9.3-9.3,9.3S242,90.2,242,85.1z M190.6,344.5c22.5-25.3,35.7-48.5,39.2-69c4.4-25.5,0.8-55.8-2.4-82.5
		c-2.8-23.4-5.2-43.7-0.9-52.1c8.6-17,18.7-37.9,20.7-42c1.3,0.4,2.6,0.6,4,0.6c7.6,0,13.7-5.9,14.2-13.3
		c7.8,1.6,50.6,10.5,110.7,31.3c38.7,13.4,178.1,56.5,290,91.1c78,24.1,146.1,45.1,161.5,50.4c-17.6,8.4-73.3,34.8-89.6,40.8
		c-2.7,1-5,2.2-7,3.5l0,0c-0.1,0.1-14.5,8-38.7,17.1c-9.5,3.6-34.9,8.4-64.3,13.9c-45.9,8.6-103.1,19.3-129.5,31.2
		c-39,17.5-68.5,61.4-74.9,71.4c-4.4-2.5-9.6-4-15.1-4c-14.2,0-26.1,9.7-29.5,22.8c-8.2-0.9-35.7-4.2-51.7-9.9
		c-8.5-3.1-30.8-12.5-54.4-22.6c-30.2-12.8-61.5-26.1-68.2-27.8c-9.4-2.4-31.3-4.8-40.4-5.7c-0.2-5.4-2.4-10.3-6.1-13.8
		C161.5,373.3,175.7,361.1,190.6,344.5z M283.6,595.7c4,0.9,7.5,1.7,9.9,2.3c-0.3,0.5-0.6,1-0.9,1.4c-23.6,39-62.6,77.1-73.5,87.3
		l-5.3-3.7C222.7,673.6,259.1,634.8,283.6,595.7z M281.2,590c-3.7-0.9-7.7-1.9-11.7-2.9c4.4-6.1,14.7-20.1,21-27.4
		c4.3-5,5-13.8,5.7-23.2c0.8-10.4,1.7-22.2,7.9-28.8c8.4-8.9,16.1-9.4,27.8-10.1c4.3-0.3,9.2-0.6,14.8-1.4
		c16.5-2.3,28.9-14.7,34.1-20.8c0.4,1,0.9,1.9,1.4,2.8c-1,3.5-4,12.1-9,16.8c-1,0.9-3,2.6-5.9,5.1C350,514.7,304.7,553,281.2,590z
		 M286.4,591.2c23.3-35.9,67.2-73,84.1-87.3c2.9-2.5,5-4.2,6.1-5.2c4.5-4.2,7.5-10.8,9.2-15.4c2.7,3.1,6.1,5.7,9.9,7.5
		c-3.9,3-10,7.9-14.6,12.1c-0.8,0.7-2.1,1.9-4,3.5c-14.3,12.6-56.4,49.8-80.8,87C294.3,593,290.8,592.2,286.4,591.2z M383.2,463.2
		c0-14.1,11.4-25.5,25.5-25.5s25.5,11.4,25.5,25.5c0,14.1-11.4,25.5-25.5,25.5S383.2,477.3,383.2,463.2z M129.4,390.2
		c0-8.3,6.8-15.1,15.1-15.1s15.1,6.8,15.1,15.1c0,8.3-6.8,15.1-15.1,15.1S129.4,398.5,129.4,390.2z M139.4,409.6
		c1.6,0.4,3.3,0.7,5.1,0.7c9.6,0,17.6-6.7,19.6-15.7c9,0.9,30.7,3.2,39.6,5.5c6.3,1.6,38.8,15.4,67.5,27.6
		c23.7,10.1,46,19.6,54.6,22.7c16.5,6,43.8,9.2,52.5,10.2c-0.1,0.9-0.1,1.8-0.1,2.7c0,2.2,0.2,4.4,0.7,6.5
		c-2.4,3.1-15.3,19-32.9,21.5c-5.4,0.8-10.2,1.1-14.4,1.4c-12.4,0.8-21.3,1.4-31.1,11.7c-7.4,7.8-8.4,20.6-9.3,31.8
		c-0.7,8.5-1.3,16.6-4.5,20.3c-7.2,8.3-18.9,24.5-22.4,29.3c-9.3-2.5-18.2-5.2-23.3-7.6c-13.5-6.3-73.6-50.5-114.2-93.7
		c-13.3-15-20.2-21.9-23.2-24.7C121.3,437.1,134.5,417.5,139.4,409.6z M197.5,691.1l-2.8,1.1c0,0.1,0.9,2.2,2.2,5.6
		c-6.5,1.1-23.1,3.1-43.3,0.2c-23.8-3.4-57.5-14.6-83.3-48.5c-22.9-30-32.6-59.8-28.9-88.5c2.9-22.9,14.5-45.8,34.5-68
		c8.8-9.8,17.1-19.8,24.7-29.4c3,2.9,9.9,9.8,22.6,24.1c41,43.7,102,88.5,115.8,94.9c8.4,3.9,25.9,8.5,39.5,11.8
		c-27.6,43.7-69.9,86.7-70.3,87.2l-1.1,1.1C203.5,686.1,199.3,689.6,197.5,691.1z M225.5,755.5c-4.1-10.3-19.2-48-24.4-60.9
		c2-1.6,5.8-4.7,9.1-8l7.1,5l26.5,54.4C238,749.2,231.8,752.4,225.5,755.5z M469.1,566.7c-4.6,3.9-21.5,13.9-37.9,23.6
		c-18.7,11.1-38,22.6-44.8,28.1c-4,3.3-13.5,12.9-26.5,26.2c-28.2,28.7-70.8,72.1-96.6,89.7c-4.5,3-9.6,6.2-15.1,9.3l-25.9-53.1
		c10.9-10.2,50.5-48.8,74.5-88.5c23.2-38.5,68.7-78.6,83.6-91.8c1.9-1.7,3.2-2.9,4-3.6c5.6-5.2,13.8-11.5,16.8-13.8
		c2.4,0.6,4.9,0.9,7.5,0.9c6.5,0,12.6-2.1,17.6-5.6c6.9,8.5,34.6,42.9,42.4,52.7C477.4,551.8,477.5,559.7,469.1,566.7z M701.4,419.4
		c-12,14.1-52.3,34.2-91.2,53.6c-35.4,17.7-68.8,34.4-81.3,46.6c-27.3,26.6-37.5,34.5-52,24.7c-1.1-2.1-2.6-4.2-4.3-6.4
		c-7.8-9.9-35.7-44.4-42.5-52.8c5.6-5.5,9.1-13.2,9.1-21.7c0-9.6-4.4-18.1-11.3-23.7c5.9-9.2,35.3-52.8,72.8-69.6
		c25.8-11.6,82.7-22.3,128.3-30.8c29.7-5.6,55.3-10.4,65.2-14.1c12.4-4.7,22.1-9,28.8-12.2c-3.9,9.6,0.2,20.6,1.9,25.4
		c1.2,3.1,2.6,5.9,4.3,8.1C728.4,353.2,722.2,395,701.4,419.4z M760.4,347c-8.6,3.5-15.5,4-20.7,1.8c-4.4-1.9-7.7-6-10-12.3
		c-4.6-12.3-6.9-25.7,10.2-32.1c18.6-6.9,85.3-38.8,94.4-43.1c1.4,0.5,2.7,0.9,4,1.4c15.8,5.4,24.5,8.4,21.9,27l-2.7,14.3
		C847.6,308.4,779.4,339.4,760.4,347z M880,451.2c-0.1,0-0.1-0.1-0.2-0.2c-5.4-4.8-17.2-3.1-35.8,5
		c-36.9,16.1-424.9,191.7-489.5,221c1.7-2.4,3.4-4.9,5-7.3c16.8-26.5,84.8-67.6,113.9-85.2c2.2-1.3,4.3-2.6,6-3.7
		c13.4-8.2,24.4-16.8,37.1-26.7c11.7-9.2,25-19.6,42.9-31.7c38.4-25.9,99.7-50.3,125.9-60.7c25.8-10.3,38.3-33.5,49.2-53.9
		c3.5-6.4,6.7-12.5,10.3-18.1c14.6-22.8,47.4-29.2,47.7-29.2l0.2,0c1.8-0.3,16-2.2,27.3,13.7c11.1,15.6,53.2,58.2,66.6,71.7
		C883.9,447,881.6,448.8,880,451.2z M892.5,470.2c-5.4,0-9.9-4.3-10.2-9.6l0.2,0c0.3-0.9,0.5-2.3,0.3-3.8c1.1-3.5,4.2-6.2,7.9-6.9
		c0,0,0.1,0.1,0.1,0.1l0.1-0.1c0.5-0.1,1.1-0.1,1.6-0.1c5.6,0,10.2,4.6,10.2,10.2S898.1,470.2,892.5,470.2z"/>
</g>
<g id="school">
	
		<rect x="338.2" y="545.2" transform="matrix(0.7071 0.7071 -0.7071 0.7071 507.1223 -89.7423)" class="st2" width="47.4" height="44.2"/>
</g>
</svg>
